<?xml version="1.0" standalone="no"?>
<!DOCTYPE svg PUBLIC "-//W3C//DTD SVG 20010904//EN"
 "http://www.w3.org/TR/2001/REC-SVG-20010904/DTD/svg10.dtd">
<svg version="1.0" xmlns="http://www.w3.org/2000/svg"
 width="400.000000pt" height="500.000000pt" viewBox="0 0 400.000000 500.000000"
 preserveAspectRatio="xMidYMid meet">
<metadata>
Created by potrace 1.16, written by Peter Selinger 2001-2019
</metadata>
<g transform="translate(0.000000,500.000000) scale(0.100000,-0.100000)"
fill="#000000" stroke="none">
<path d="M1935 4560 c-3 -5 -29 -10 -56 -10 -39 0 -58 -6 -85 -27 -22 -16 -34
-21 -32 -12 2 9 -5 13 -22 12 -203 -16 -201 -15 -251 -50 -27 -18 -53 -33 -58
-33 -5 0 -29 -18 -53 -40 -24 -21 -55 -48 -70 -60 -15 -11 -58 -62 -96 -113
-75 -101 -102 -130 -192 -208 -40 -34 -65 -67 -80 -101 -12 -28 -36 -73 -54
-98 -17 -26 -57 -87 -89 -136 -31 -49 -69 -105 -83 -124 -14 -19 -21 -36 -16
-38 4 -1 6 -38 4 -81 -3 -71 -2 -81 17 -100 12 -12 19 -26 16 -31 -3 -6 1 -7
9 -4 10 4 16 1 16 -8 0 -25 44 -58 77 -58 l31 0 -3 -62 c-2 -47 3 -82 21 -135
13 -39 24 -80 24 -91 0 -26 124 -150 170 -170 38 -17 59 -22 103 -23 15 0 27
-2 27 -4 0 -3 -11 -25 -25 -50 -14 -25 -23 -45 -20 -45 3 0 1 -10 -6 -21 -28
-53 -11 -249 25 -287 10 -10 7 -24 -16 -70 -15 -31 -28 -63 -28 -70 0 -8 -9
-26 -20 -42 -11 -15 -17 -30 -13 -34 3 -3 2 -6 -3 -6 -17 0 -35 -84 -31 -152
l3 -67 -26 6 c-14 3 -32 12 -41 19 -8 8 -20 14 -26 14 -6 0 -21 8 -34 18 -13
10 -50 26 -81 35 -32 10 -58 24 -58 31 0 7 -10 22 -22 33 -33 30 -58 61 -71
91 -6 15 -15 29 -19 32 -10 8 -11 108 -2 154 5 27 4 37 -4 32 -6 -3 -14 3 -17
15 -7 22 -60 59 -85 59 -47 0 -146 -72 -161 -117 -6 -19 -17 -33 -26 -33 -9 0
-14 -2 -11 -6 3 -3 2 -20 -2 -38 -9 -42 5 -150 26 -196 20 -42 44 -71 54 -65
4 3 10 -3 12 -13 3 -11 22 -23 47 -30 22 -7 41 -16 41 -21 0 -4 19 -16 42 -27
31 -14 46 -29 59 -60 11 -23 26 -47 34 -54 8 -7 12 -16 9 -22 -3 -5 -2 -14 3
-21 13 -16 46 -143 49 -187 1 -19 7 -57 12 -83 5 -27 6 -67 2 -90 -6 -29 -4
-47 7 -63 8 -12 13 -28 13 -36 -3 -18 11 -58 20 -58 4 0 8 -21 8 -46 1 -25 7
-54 12 -64 6 -10 10 -29 10 -42 0 -13 7 -33 15 -44 8 -10 15 -27 15 -37 0 -10
4 -16 9 -13 4 3 22 -12 40 -34 17 -22 35 -39 39 -37 10 3 51 -40 45 -47 -4 -3
-1 -6 6 -6 31 0 57 -47 67 -125 4 -33 8 -62 9 -65 0 -3 3 -10 7 -16 7 -10 3
-53 -7 -82 -8 -23 48 -111 87 -138 21 -15 38 -30 38 -35 0 -6 34 -22 50 -22 3
0 20 -6 38 -14 17 -7 32 -9 32 -5 0 18 68 30 117 21 44 -9 178 -13 213 -8 24
4 100 -13 100 -22 0 -4 18 -13 40 -19 22 -6 40 -15 40 -21 0 -6 5 -7 10 -4 6
3 16 3 23 -2 6 -4 59 -6 117 -5 83 3 112 7 139 23 34 20 64 27 136 34 22 2 64
7 93 11 47 6 55 5 68 -14 8 -11 29 -24 47 -27 17 -4 37 -11 43 -16 30 -24 184
1 184 30 0 6 25 37 84 101 12 14 28 43 35 65 12 38 16 63 23 140 2 17 7 33 11
36 4 3 1 27 -8 53 -15 45 -15 48 5 80 15 25 26 33 40 29 24 -6 94 27 136 64
33 30 49 66 59 128 8 52 35 125 46 125 5 0 9 9 9 21 0 11 10 35 23 52 41 58
62 141 39 156 -5 3 -8 36 -8 72 1 57 6 73 38 125 20 33 42 79 50 103 7 24 20
46 28 49 22 8 39 34 40 58 0 29 28 51 86 69 27 8 56 21 64 28 32 26 61 79 74
135 7 32 18 68 25 79 13 26 13 149 -1 179 -18 39 -66 67 -114 66 -24 -1 -51
-5 -61 -10 -10 -5 -35 -17 -55 -27 -37 -18 -43 -26 -52 -75 -2 -14 -7 -32 -11
-41 -3 -10 -2 -20 4 -24 16 -9 13 -86 -4 -104 -28 -30 -67 -76 -73 -86 -21
-34 -126 -87 -199 -101 -15 -3 -32 -7 -38 -8 -30 -8 -166 -69 -272 -123 -51
-25 -61 -28 -53 -13 5 10 8 33 6 52 -7 55 33 128 85 157 51 28 184 158 194
190 3 12 17 33 31 48 13 14 21 29 18 34 -3 5 4 22 15 38 12 16 21 33 21 38 0
4 7 22 16 38 38 69 55 293 26 328 -14 16 -21 124 -26 397 -5 194 -15 276 -51
396 -14 45 -25 89 -25 98 0 23 -28 103 -62 176 -17 36 -35 76 -42 90 -6 14
-14 27 -17 30 -4 3 -15 21 -25 40 -11 19 -31 48 -46 63 -15 16 -35 45 -45 65
-43 85 -138 202 -164 202 -5 0 -19 9 -31 19 -85 72 -131 105 -188 135 -36 20
-91 60 -124 91 -43 41 -66 55 -87 55 -17 0 -41 7 -54 16 -14 9 -25 13 -25 9 0
-5 -8 -1 -17 7 -21 18 -118 24 -128 8z m40 -97 c22 -3 45 -10 52 -15 7 -5 22
-9 35 -7 13 1 36 -3 51 -9 16 -7 33 -12 38 -12 21 0 69 -31 69 -45 0 -8 12
-21 28 -29 15 -8 23 -15 18 -16 -5 0 16 -13 48 -30 97 -49 192 -129 313 -265
29 -32 89 -118 106 -150 8 -16 27 -43 41 -60 14 -16 26 -40 26 -52 0 -12 4
-24 9 -27 5 -3 12 -22 15 -41 4 -19 10 -35 15 -35 12 0 35 -52 34 -77 0 -13 4
-23 8 -23 5 0 9 -13 9 -29 0 -16 7 -48 16 -72 9 -24 17 -50 18 -57 1 -8 7 -17
14 -21 6 -4 8 -12 3 -20 -10 -16 -4 -68 12 -96 8 -13 12 -94 12 -245 0 -185 3
-231 16 -260 9 -19 17 -53 18 -75 1 -21 10 -59 21 -82 16 -36 17 -52 10 -99
-5 -31 -7 -61 -4 -66 3 -5 0 -17 -8 -26 -19 -22 -48 -101 -48 -130 0 -12 -4
-22 -10 -22 -5 0 -10 -6 -10 -13 0 -30 -116 -171 -132 -161 -5 4 -20 -4 -33
-16 -20 -19 -30 -21 -62 -15 -53 10 -81 26 -138 82 -50 49 -135 180 -135 208
0 8 -14 28 -30 45 -17 17 -28 35 -25 41 4 5 -1 12 -9 15 -31 12 -15 24 32 23
26 -1 60 4 77 11 34 13 106 86 139 142 12 21 42 51 67 67 39 27 45 28 53 13 5
-9 12 -19 16 -22 4 -3 12 -21 19 -41 14 -44 47 -76 83 -83 33 -6 43 6 28 34
-9 16 -8 24 5 36 24 24 18 34 -20 34 -25 0 -37 6 -46 22 -6 12 -20 31 -31 42
-12 13 -18 30 -15 45 6 31 -19 71 -43 71 -42 0 -50 10 -43 56 6 43 4 46 -42
89 -44 40 -118 75 -160 75 -9 0 -29 -7 -45 -15 -24 -12 -34 -13 -49 -3 -27 17
-54 76 -58 128 -2 25 -5 63 -6 85 -2 22 -12 57 -22 77 -18 36 -18 40 -2 74 32
66 55 363 33 421 -3 7 -1 13 4 13 6 0 10 10 10 23 0 24 29 88 56 125 16 22 16
22 -15 22 -17 0 -39 -8 -50 -19 -19 -19 -19 -18 -25 10 -6 32 -44 89 -59 89
-5 0 -7 -6 -4 -14 3 -8 2 -16 -3 -18 -5 -2 -2 -34 7 -73 10 -48 15 -122 15
-240 -1 -179 -4 -214 -22 -270 -6 -19 -9 -39 -6 -44 4 -5 2 -12 -3 -16 -5 -3
-10 -13 -11 -23 -10 -160 -17 -221 -26 -233 -6 -8 -17 -36 -24 -64 -19 -74
-90 -184 -123 -189 -6 -1 -38 -14 -70 -30 -89 -42 -277 -45 -277 -5 0 5 -7 9
-16 9 -23 0 -112 95 -119 127 -4 15 -11 37 -16 48 -5 11 -11 31 -13 45 -8 48
-38 126 -78 200 -68 129 -63 240 16 313 27 24 37 27 101 27 l72 0 47 -52 c26
-29 55 -62 65 -73 27 -30 101 -178 107 -215 3 -14 31 -40 45 -40 4 0 6 19 4
43 -2 23 -5 42 -6 42 -1 0 -3 14 -4 30 -2 17 -19 61 -39 98 -54 103 -46 140
24 104 27 -13 61 -14 125 -2 37 7 58 14 143 51 47 20 73 67 59 108 -6 17 -11
49 -12 71 -3 71 -27 137 -57 154 -16 9 -28 21 -28 27 0 18 -40 54 -68 60 -15
4 -36 14 -47 24 -14 13 -45 19 -110 23 -49 4 -99 8 -110 10 -11 3 -42 -2 -70
-9 -89 -25 -122 -24 -189 4 -33 14 -66 29 -71 33 -19 14 -100 0 -149 -26 l-48
-26 -24 26 -23 25 23 23 c12 12 35 44 50 69 19 33 40 53 72 68 25 12 50 27 57
34 25 22 52 37 170 94 4 2 7 -1 7 -8 0 -6 -4 -9 -9 -6 -5 3 -14 -1 -21 -9 -7
-8 -19 -15 -26 -15 -8 0 -14 -6 -14 -14 0 -22 24 -36 51 -29 23 6 23 5 8 -13
-9 -10 -19 -30 -22 -42 -5 -20 0 -18 31 15 20 21 54 53 75 71 34 30 41 32 72
23 26 -7 35 -6 39 4 3 8 0 16 -7 18 -7 2 -9 8 -5 12 14 15 113 44 128 39 8 -3
33 -8 55 -11z m-417 -428 c75 -6 194 -6 262 0 36 3 85 2 110 -3 l45 -8 -29
-14 c-35 -18 -46 -40 -19 -40 10 0 39 8 66 17 39 14 49 15 60 4 10 -11 8 -13
-10 -8 -13 3 -23 1 -23 -4 0 -5 -12 -9 -26 -9 -20 0 -25 -4 -20 -16 3 -9 6
-20 6 -26 0 -6 22 -8 55 -6 30 1 55 0 55 -4 0 -5 15 -8 33 -9 l32 -1 -39 -10
c-29 -8 -44 -8 -59 1 -24 15 -26 13 -32 -33 l-5 -37 80 7 c55 4 80 3 80 -4 0
-17 -35 -32 -75 -32 -38 0 -105 -26 -105 -40 0 -13 22 -17 90 -15 107 3 114
-30 17 -70 -45 -18 -73 -22 -139 -21 -46 1 -89 6 -96 10 -8 4 -30 10 -50 12
-67 6 -235 24 -273 29 -44 5 -104 -29 -138 -78 -17 -25 -31 -48 -31 -52 0 -4
-7 -13 -15 -21 -22 -22 -19 -61 18 -221 8 -34 11 -64 7 -65 -4 -2 -1 -32 6
-68 8 -36 12 -72 9 -80 -2 -8 -5 -39 -6 -68 -2 -29 -6 -55 -11 -58 -4 -3 -8
-14 -8 -25 0 -11 -18 -39 -40 -61 -22 -23 -40 -46 -40 -50 0 -4 -17 -8 -38 -8
-21 0 -42 -3 -46 -7 -4 -5 -11 -8 -14 -9 -4 0 -15 -4 -26 -9 -10 -5 -21 -4
-25 2 -3 6 -16 13 -28 17 -12 4 -47 31 -78 61 -41 41 -55 61 -55 83 0 15 -6
34 -12 40 -10 10 -27 116 -29 177 -1 54 11 257 16 280 8 30 37 79 74 125 11
14 21 29 21 34 0 8 57 82 90 116 8 9 40 53 70 98 34 51 61 82 72 82 12 0 18 8
18 23 0 12 11 39 25 59 20 30 32 37 62 40 21 2 56 -3 78 -10 22 -8 59 -15 83
-17z m-350 -14 c28 -1 29 -31 2 -56 -11 -10 -20 -24 -20 -32 0 -7 -4 -13 -9
-13 -5 0 -12 -9 -16 -19 -3 -11 -19 -34 -35 -51 -16 -17 -42 -57 -57 -88 -15
-31 -48 -77 -72 -101 -25 -24 -53 -61 -63 -83 -9 -21 -24 -46 -33 -54 -17 -18
-19 -30 -20 -139 0 -69 -2 -80 -19 -83 -32 -7 -37 13 -9 42 l27 29 -36 -6
c-20 -3 -39 -3 -42 0 -3 3 8 22 24 42 31 36 38 61 20 61 -6 0 -13 -7 -16 -15
-4 -8 -10 -15 -14 -15 -12 0 -6 40 8 67 17 32 15 36 -15 29 l-28 -6 28 23 c15
12 27 28 27 35 0 7 6 15 14 18 8 3 17 16 20 29 3 13 23 45 45 72 21 27 42 60
46 73 4 13 18 35 31 49 13 14 31 42 39 61 29 65 43 85 68 97 13 7 30 19 36 27
7 8 20 13 29 11 9 -2 27 -4 40 -4z m1302 -1022 c0 -11 -8 -34 -17 -50 -12 -21
-14 -32 -6 -40 23 -23 90 51 77 85 -5 12 -2 15 10 10 9 -3 16 -12 16 -19 0
-24 -23 -80 -41 -101 -11 -11 -19 -25 -19 -32 0 -13 39 -7 54 8 17 17 28 11
24 -12 -2 -12 -14 -28 -27 -34 -25 -13 -41 -32 -41 -51 0 -17 89 -10 128 11
19 10 36 15 39 13 5 -6 -60 -57 -72 -57 -8 0 -74 -52 -128 -101 -25 -24 -28
-30 -18 -43 8 -9 17 -13 22 -10 5 3 9 2 9 -1 0 -16 -73 -33 -135 -33 -86 1
-102 10 -75 46 15 19 17 28 9 38 -13 15 -59 19 -59 5 0 -41 -327 -70 -475 -42
-27 5 -56 8 -64 6 -16 -3 -137 -19 -156 -20 -17 -2 -90 -28 -95 -34 -6 -7 -59
-43 -75 -51 -29 -14 -95 -66 -95 -76 0 -6 -9 -19 -20 -29 -18 -17 -19 -16 -24
6 -11 54 -16 171 -8 182 5 7 12 33 15 59 10 71 49 139 123 212 37 36 70 66 74
66 4 0 17 9 30 20 13 11 28 20 35 20 6 0 37 -27 68 -60 31 -33 60 -60 65 -60
6 0 41 -13 78 -29 39 -16 73 -26 79 -21 5 4 33 10 60 13 62 6 94 14 168 38 55
18 127 23 127 8 0 -16 67 -2 90 19 14 13 39 30 57 38 18 8 37 22 42 31 5 10
31 29 58 43 26 13 52 30 56 37 13 20 37 15 37 -8z m-826 -474 c30 6 36 4 36
-10 0 -12 5 -15 18 -10 34 15 100 21 123 12 22 -8 263 -3 336 7 24 4 31 2 27
-9 -7 -18 24 -53 67 -75 37 -19 69 -70 69 -109 0 -12 3 -21 8 -21 13 0 44 -64
33 -68 -6 -2 -11 -9 -11 -15 0 -7 -10 -17 -22 -22 -24 -11 -36 -35 -17 -35 6
0 18 -8 25 -17 13 -17 15 -17 25 0 14 23 52 22 74 -3 10 -11 13 -20 7 -20 -7
0 -12 4 -12 10 0 5 -7 7 -15 4 -10 -4 -13 -14 -9 -31 6 -24 5 -24 -16 -13 -22
12 -22 11 -15 -26 4 -22 11 -44 17 -51 5 -7 8 -20 6 -30 -2 -12 -10 -1 -21 30
-24 61 -47 63 -42 5 5 -67 16 -101 41 -125 29 -27 77 -38 103 -23 39 20 16
-22 -27 -52 -23 -16 -62 -14 -62 3 0 5 -7 9 -15 9 -19 0 -49 46 -42 65 4 8 2
17 -2 20 -5 2 -16 20 -25 39 -13 27 -21 33 -37 29 -17 -5 -20 -11 -14 -32 3
-14 8 -48 12 -76 6 -57 22 -79 75 -106 73 -37 133 -20 215 61 12 12 24 17 27
11 4 -5 2 -12 -3 -15 -4 -3 -8 -17 -8 -30 0 -13 -4 -51 -8 -83 -5 -32 -9 -62
-10 -68 -3 -27 -36 -145 -44 -160 -3 -5 -6 -17 -6 -26 -1 -9 -9 -24 -18 -33
-8 -9 -19 -25 -22 -36 -3 -11 -10 -20 -14 -20 -5 0 -22 -14 -40 -30 -17 -17
-37 -28 -43 -24 -6 4 -53 9 -104 11 -91 3 -94 2 -160 -34 -38 -20 -76 -38 -87
-38 -10 -1 -22 -6 -25 -12 -14 -20 -45 -24 -63 -7 -10 9 -23 13 -28 9 -6 -3
-11 0 -11 7 -1 15 -80 68 -102 68 -8 0 -17 3 -21 6 -3 4 -23 8 -44 9 -83 7
-209 24 -228 31 -11 4 -32 16 -46 27 -14 10 -56 29 -92 42 -36 12 -78 32 -94
43 -16 11 -41 24 -56 27 -15 4 -27 12 -27 18 0 6 -9 29 -19 51 -30 63 -52 241
-45 355 9 133 9 131 28 176 41 96 55 122 80 148 14 15 26 31 26 35 0 19 64 64
109 78 27 8 53 14 58 13 4 -1 21 3 36 9 16 7 32 10 36 8 4 -3 20 5 35 17 19
16 29 34 33 64 5 40 29 62 44 40 3 -5 22 -5 43 -2z m-1089 -345 c21 -8 31 -8
33 -1 6 19 22 1 22 -24 0 -13 5 -27 10 -30 6 -3 10 -13 10 -21 0 -9 -11 -2
-28 17 -22 24 -33 30 -50 25 -27 -9 -27 -17 -2 -46 11 -13 20 -28 20 -35 0 -6
16 -30 35 -52 32 -38 44 -63 29 -63 -3 0 -25 16 -49 36 -24 20 -49 33 -54 30
-13 -8 -65 46 -84 87 -10 20 -14 51 -11 84 2 33 -1 55 -8 59 -8 5 -5 10 8 15
14 5 28 -3 54 -32 19 -20 48 -43 65 -49z m244 -312 c31 -52 91 -176 91 -190 0
-16 70 -110 94 -128 12 -8 37 -29 57 -47 20 -18 42 -33 48 -33 7 0 23 -13 37
-29 14 -17 37 -31 56 -34 55 -9 69 -13 76 -23 4 -5 30 -20 57 -34 28 -13 52
-27 55 -31 9 -11 104 -37 137 -37 18 -1 38 -4 44 -7 6 -4 54 -7 107 -8 84 0
101 -3 127 -23 17 -12 49 -31 73 -43 42 -21 43 -23 41 -69 -3 -95 -29 -158
-71 -175 -10 -3 -18 -15 -18 -26 0 -10 -9 -21 -20 -24 -11 -3 -28 -19 -37 -36
-10 -17 -23 -31 -29 -31 -6 0 -29 -18 -50 -40 -22 -22 -46 -40 -55 -40 -9 0
-21 -11 -27 -25 -6 -14 -16 -25 -22 -25 -6 0 -23 -19 -38 -43 -15 -23 -37 -53
-50 -67 -12 -14 -37 -41 -55 -61 -38 -42 -116 -74 -171 -70 -44 3 -84 37 -103
86 -13 33 -26 140 -27 222 -1 35 -7 60 -22 80 l-21 28 42 38 c32 30 41 44 37
63 -2 13 -6 24 -7 24 -2 0 -25 -11 -52 -24 -26 -13 -64 -26 -83 -30 -32 -6
-39 -2 -74 34 -24 25 -42 57 -48 83 -5 23 -12 51 -15 62 -2 11 -6 47 -7 80 -2
61 -14 93 -45 124 -25 25 -22 66 4 67 11 1 28 5 38 9 38 16 137 -62 143 -113
2 -18 10 -42 18 -55 8 -12 17 -33 21 -46 9 -30 36 -61 53 -61 7 0 28 -16 48
-35 66 -67 75 -33 13 53 -23 31 -47 62 -54 67 -16 14 -76 145 -98 216 -3 9
-22 24 -44 33 -21 9 -46 21 -55 26 -9 5 -30 7 -46 4 -39 -8 -59 17 -43 52 14
31 14 98 0 144 -6 19 -13 49 -16 65 -3 17 -8 35 -13 40 -4 6 -11 25 -15 43 -4
18 -13 36 -21 39 -8 3 -12 9 -9 13 3 4 -2 13 -10 20 -8 7 -15 16 -15 21 0 14
45 -34 69 -73z m127 12 c27 -12 57 -25 66 -30 10 -5 23 -7 30 -5 16 6 22 -31
7 -40 -5 -4 -5 -14 2 -27 6 -12 13 -51 16 -87 2 -36 6 -72 8 -78 9 -26 -13
-12 -41 25 -15 20 -33 40 -40 44 -6 4 -18 28 -25 53 -7 25 -17 45 -21 45 -4 0
-8 9 -8 19 0 11 -4 22 -9 25 -14 9 -51 76 -42 76 5 0 30 -9 57 -20z m2144 -45
c-7 -9 -10 -18 -6 -22 3 -4 -6 -19 -20 -34 -18 -19 -27 -39 -26 -59 0 -16 -3
-30 -9 -30 -15 0 -49 -33 -72 -70 -49 -80 -120 -148 -198 -189 -35 -19 -80
-48 -100 -64 -20 -17 -56 -35 -81 -42 l-46 -11 29 56 c44 88 76 179 84 243 4
31 12 58 19 58 6 1 18 3 26 4 14 1 40 11 103 38 15 7 27 15 27 19 0 5 7 8 15
8 8 0 15 5 15 10 0 6 7 10 15 10 9 0 30 7 46 16 17 8 40 17 50 19 11 2 34 11
51 20 17 8 39 15 49 15 10 0 21 5 24 10 3 6 9 10 12 10 3 0 0 -7 -7 -15z m100
-14 c0 -5 -6 -14 -14 -20 -18 -15 -60 -127 -52 -140 4 -5 1 -13 -5 -16 -6 -4
-10 -31 -9 -64 1 -31 2 -77 1 -103 -1 -46 -2 -48 -29 -48 -15 0 -32 -4 -37 -9
-6 -5 -27 -14 -47 -20 -59 -19 -110 -67 -148 -138 -22 -42 -46 -72 -65 -82
-80 -43 -106 -65 -123 -104 l-19 -42 -18 40 c-10 22 -17 45 -16 51 3 20 -25
33 -85 40 -32 4 -74 13 -92 20 -18 7 -47 11 -65 8 -53 -10 -164 -54 -179 -72
-35 -41 -59 -95 -54 -124 6 -38 48 -101 82 -125 15 -10 40 -31 55 -48 169
-179 184 -192 236 -209 51 -17 52 -17 92 6 34 19 41 29 46 63 4 22 2 58 -2 80
-14 65 1 142 34 179 16 17 35 44 43 59 8 15 32 45 54 66 79 74 121 117 136
137 8 10 28 36 43 57 15 20 34 37 42 37 7 0 26 10 42 23 29 24 84 30 90 10 6
-16 -44 -123 -56 -123 -6 0 -11 -7 -11 -15 0 -9 -11 -48 -25 -87 -14 -39 -25
-81 -25 -92 -1 -24 -22 -56 -37 -56 -6 0 -16 -7 -23 -15 -6 -8 -15 -14 -18
-13 -4 1 -17 -3 -29 -10 -28 -15 -40 -13 -82 17 -31 22 -85 31 -100 16 -3 -4
2 -12 12 -19 9 -7 17 -17 17 -22 0 -5 9 -15 20 -22 21 -13 21 -13 2 -40 -23
-32 -82 -150 -82 -163 0 -5 18 -6 40 -3 36 6 40 4 40 -14 0 -12 -4 -23 -9 -26
-9 -6 -25 -64 -22 -80 4 -17 -29 -74 -55 -97 -14 -13 -40 -39 -58 -56 -17 -19
-41 -33 -54 -33 -32 0 -91 29 -105 52 -7 10 -17 18 -23 18 -13 0 -34 43 -34
70 0 11 -4 20 -10 20 -5 0 -10 7 -10 16 0 22 -43 94 -56 94 -18 0 -153 155
-146 167 7 9 -125 130 -160 146 -36 17 -38 21 -39 65 -1 26 0 52 1 57 1 6 3
21 4 34 3 25 30 51 53 51 7 0 21 7 31 16 9 8 41 33 71 55 44 31 61 38 85 34
57 -10 183 -24 251 -29 28 -2 69 3 93 9 23 7 42 11 42 8 0 -7 63 31 90 55 13
12 30 22 36 22 7 0 14 6 17 14 3 8 21 17 39 21 51 11 97 43 125 89 14 22 32
44 39 49 26 15 105 129 123 178 27 71 101 166 101 130z m-775 -711 c4 -6 25
-11 48 -11 80 1 87 -1 87 -18 0 -9 5 -22 11 -28 11 -11 20 -166 11 -214 -3
-20 -16 -31 -55 -48 -33 -15 -53 -19 -55 -12 -7 22 -64 70 -109 93 -25 13 -53
34 -62 47 -9 13 -26 34 -38 47 -12 13 -23 30 -25 38 -4 17 54 82 81 91 12 3
21 10 21 14 0 12 78 13 85 1z m-444 -210 c11 0 23 -10 70 -52 16 -16 34 -28
38 -28 8 0 29 -29 67 -92 6 -10 23 -29 37 -42 15 -14 27 -31 27 -38 0 -7 11
-26 26 -41 20 -22 22 -28 10 -32 -9 -3 -23 -7 -31 -10 -27 -8 -17 -55 19 -91
19 -19 33 -34 33 -35 -1 0 -18 -2 -37 -5 -19 -2 -51 -10 -70 -16 -43 -14 -48
-16 -82 -24 -25 -6 -28 -3 -28 18 0 17 -9 29 -27 39 -16 8 -32 20 -36 26 -20
33 -81 -11 -83 -60 -1 -15 -4 -30 -6 -33 -3 -2 -29 6 -59 20 -46 20 -158 43
-181 38 -5 -1 -8 3 -8 8 0 7 -6 7 -19 0 -11 -5 -32 -10 -48 -10 l-28 0 30 16
c17 8 39 16 50 18 30 3 65 29 65 48 0 9 5 28 11 42 9 20 8 29 -7 50 -11 14
-27 28 -36 31 -30 10 -21 30 38 84 58 54 105 83 126 79 7 -2 12 2 11 9 -2 6 6
15 17 18 11 4 20 10 20 14 0 4 15 24 33 43 24 27 34 32 40 22 4 -8 12 -14 18
-14z"/>
<path d="M1424 1184 c-111 -69 -151 -166 -119 -289 7 -27 16 -81 20 -118 5
-54 12 -72 31 -91 36 -33 97 -34 130 -1 14 14 30 25 35 25 10 0 107 76 120 94
21 28 77 92 92 105 9 9 17 25 17 38 0 12 4 24 9 28 5 3 15 30 21 60 10 48 9
59 -6 85 -10 16 -21 30 -25 30 -4 0 -9 9 -12 20 -7 29 -49 41 -157 47 l-95 4
-61 -37z m206 -59 c8 -9 16 -12 19 -6 3 5 16 1 30 -10 41 -33 27 -119 -27
-163 -13 -10 -40 -37 -60 -59 -21 -22 -50 -48 -66 -58 -28 -17 -30 -17 -67 7
-21 13 -43 24 -48 24 -5 0 -15 20 -23 45 -23 68 -9 129 42 177 49 47 71 57
136 57 35 1 56 -4 64 -14z"/>
</g>
</svg>
